<svg width="82" height="82" viewBox="0 0 82 82" fill="none" xmlns="http://www.w3.org/2000/svg">
<rect width="82" height="82" fill="white" fill-opacity="0.0666667"/>
<path d="M55.2731 71.1094C50.8148 73.2308 45.9374 74.3254 41 74.3125C22.632 74.3125 7.68751 59.368 7.68751 41C7.68751 33.1203 10.3961 25.6788 15.375 19.7107V25.625H20.5V10.25H5.12501V15.375H12.4076C6.05433 22.3957 2.54437 31.5314 2.56251 41C2.56251 62.1944 19.8056 79.4375 41 79.4375C46.6999 79.452 52.3305 78.1875 57.4769 75.7372L55.2731 71.1094Z" fill="#044094"/>
<path d="M53.8125 23.0625C45.715 23.0625 39.0756 29.3586 38.4939 37.31C35.6766 34.7397 32.0011 33.314 28.1875 33.3125H17.9375V43.5625C17.9375 52.0418 24.8357 58.9375 33.3125 58.9375H38.4375V69.1875H43.5625V48.6875H48.6875C57.1642 48.6875 64.0625 41.7918 64.0625 33.3125V23.0625H53.8125ZM33.3125 53.8125C27.6596 53.8125 23.0625 49.2154 23.0625 43.5625V38.4375H28.1875C33.8404 38.4375 38.4375 43.0346 38.4375 48.6875V50.1891L32.5617 44.3133L28.9383 47.9367L34.8141 53.8125H33.3125ZM58.9375 33.3125C58.9375 38.9654 54.3404 43.5625 48.6875 43.5625H47.1859L53.0617 37.6867L49.4383 34.0633L43.5625 39.9391V38.4375C43.5625 32.7846 48.1596 28.1875 53.8125 28.1875H58.9375V33.3125Z" fill="#044094"/>
<path d="M79.4375 41C79.4375 19.8056 62.1944 2.5625 41 2.5625C35.3001 2.54803 29.6695 3.81249 24.5231 6.26275L26.7269 10.8906C31.1853 8.76917 36.0627 7.6746 41 7.6875C59.368 7.6875 74.3125 22.632 74.3125 41C74.3125 48.8797 71.6039 56.3212 66.625 62.2892V56.375H61.5V71.75H76.875V66.625H69.5924C75.9457 59.6043 79.4556 50.4686 79.4375 41Z" fill="#044094"/>
</svg>
