<svg width="90" height="90" viewBox="0 0 90 90" fill="none" xmlns="http://www.w3.org/2000/svg">
<path d="M30.15 61.275C33.9375 51.8625 38.2125 41.1 54.375 37.5C54.375 37.5 35.625 37.5 29.55 54.8625C29.55 54.8625 26.25 51.5625 26.25 47.8125C26.25 44.0625 30 36.1125 39.375 34.2375C42.0375 33.75 45 33.2625 47.925 32.85C55.3125 31.875 62.4 30.825 63.75 28.125C63.75 28.125 58.125 60 37.5 60C36.825 60 35.8875 59.775 34.9875 59.4375L33.225 63.75L29.6625 62.5125L30.15 61.275ZM45 15C61.5375 15 75 28.4625 75 45C75 61.5375 61.5375 75 45 75C28.4625 75 15 61.5375 15 45C15 28.4625 28.4625 15 45 15ZM45 7.5C24.375 7.5 7.5 24.375 7.5 45C7.5 65.625 24.375 82.5 45 82.5C65.625 82.5 82.5 65.625 82.5 45C82.5 24.375 65.625 7.5 45 7.5Z" fill="#044094"/>
</svg>
