<svg width="74" height="70" viewBox="0 0 74 70" fill="none" xmlns="http://www.w3.org/2000/svg">
<path d="M25.6666 70L19.3333 59.3333L7.33331 56.6667L8.49998 44.3333L0.333313 35L8.49998 25.6667L7.33331 13.3333L19.3333 10.6667L25.6666 0L37 4.83333L48.3333 0L54.6666 10.6667L66.6666 13.3333L65.5 25.6667L73.6666 35L65.5 44.3333L66.6666 56.6667L54.6666 59.3333L48.3333 70L37 65.1667L25.6666 70ZM28.5 61.5L37 57.8333L45.6666 61.5L50.3333 53.5L59.5 51.3333L58.6666 42L64.8333 35L58.6666 27.8333L59.5 18.5L50.3333 16.5L45.5 8.5L37 12.1667L28.3333 8.5L23.6666 16.5L14.5 18.5L15.3333 27.8333L9.16665 35L15.3333 42L14.5 51.5L23.6666 53.5L28.5 61.5ZM33.5 46.8333L52.3333 28L47.6666 23.1667L33.5 37.3333L26.3333 30.3333L21.6666 35L33.5 46.8333Z" fill="white"/>
</svg>
